<svg xmlns="http://www.w3.org/2000/svg" width="71.5" height="71.5" viewBox="0 0 71.5 71.5"><circle fill="#FF7B00" cx="35.75" cy="35.75" r="35"/><g fill="#FFF"><path d="M52.175 19.933h-4.26V18.11a.607.607 0 00-.605-.609h-4.26a.61.61 0 00-.609.609v1.823H29.06V18.11a.61.61 0 00-.609-.609h-4.26a.61.61 0 00-.608.609v1.823h-4.257a.609.609 0 00-.608.608v32.85c0 .336.272.609.608.609h32.85a.609.609 0 00.608-.609v-32.85a.61.61 0 00-.609-.608zm-8.517-1.214H46.7v3.646h-3.042v-3.646zm-18.858 0h3.042v3.646H24.8v-3.646zm-4.865 2.431h3.647v1.824a.61.61 0 00.608.609h4.26a.61.61 0 00.609-.609V21.15H42.44v1.824a.61.61 0 00.609.609h4.26a.607.607 0 00.605-.609V21.15h3.65v5.475H19.935V21.15zm0 31.632V27.844h31.631v24.938H19.935zm0 0"/><path d="M40.617 31.49H24.19v17.645h23.12V31.49h-6.693zm-4.26 1.219h4.26v4.259h-4.26v-4.259zm4.26 9.733h-4.26v-4.26h4.26v4.26zm-9.734-4.259h4.26v4.26h-4.26v-4.26zm0-5.474h4.26v4.259h-4.26v-4.259zm-5.475 0h4.257v4.259h-4.257v-4.259zm0 5.474h4.257v4.26h-4.257v-4.26zm4.257 9.734h-4.257v-4.26h4.257v4.26zm5.478 0h-4.26v-4.26h4.26v4.26zm5.474 0h-4.26v-4.26h4.26v4.26zm5.475 0h-4.26v-4.26h4.26v4.26zm0-5.475h-4.26v-4.26h4.26v4.26zm0-9.733v4.259h-4.26v-4.259h4.26zm0 0"/></g></svg>