<svg xmlns="http://www.w3.org/2000/svg" width="71.5" height="71.5" viewBox="0 0 71.5 71.5"><circle fill="#FF7B00" cx="35.75" cy="35.75" r="35"/><path fill="#FFF" d="M51.18 49.426a20.542 20.542 0 005.2-13.676 20.539 20.539 0 00-5.6-14.11c-.003-.004-.007-.007-.007-.011-3.615-3.837-8.678-6.297-14.308-6.491l-.403-.011c-.104-.003-.208-.007-.313-.007s-.209.003-.313.007l-.399.011c-5.631.194-10.696 2.654-14.309 6.491-.003.004-.007.007-.007.011h-.003c-3.467 3.692-5.6 8.656-5.6 14.11a20.557 20.557 0 005.2 13.676c.007.007.007.014.011.021.013.017.03.023.045.041 3.633 4.061 8.844 6.676 14.662 6.874l.399.015c.104 0 .208.003.313.003s.209-.003.313-.007l.399-.011h.004c5.821-.198 11.039-2.82 14.673-6.888.006-.015.024-.018.03-.032.009-.003.009-.009.013-.016zM16.562 36.462H25.1c.08 3.015.671 5.946 1.72 8.691a26.24 26.24 0 00-5.773 2.938 19.1 19.1 0 01-4.485-11.629zm4.874-13.499a26.414 26.414 0 005.62 2.762 26.306 26.306 0 00-1.956 9.313h-8.538a19.1 19.1 0 014.874-12.075zm33.506 12.075H46.4a26.246 26.246 0 00-1.956-9.313 26.274 26.274 0 005.62-2.762 19.115 19.115 0 014.878 12.075zm-19.904-9.275a24.75 24.75 0 01-6.023-.911 24.923 24.923 0 016.023-7.854v8.765zm0 1.424v7.851h-8.515a24.85 24.85 0 011.896-8.872c2.139.618 4.357.962 6.619 1.021zm1.424 0a26.31 26.31 0 006.621-1.021 24.82 24.82 0 011.896 8.872h-8.518v-7.851zm0-1.424v-8.764a24.837 24.837 0 016.026 7.854c-1.951.546-3.97.855-6.026.91zm7.405-1.344a26.324 26.324 0 00-5.612-7.708 19.144 19.144 0 0110.803 5.208 24.928 24.928 0 01-5.191 2.5zm-16.231 0a24.745 24.745 0 01-5.189-2.5 19.139 19.139 0 0110.799-5.208 26.227 26.227 0 00-5.61 7.708zm-1.113 12.043h8.515v7.143a26.23 26.23 0 00-6.871 1.093 24.871 24.871 0 01-1.644-8.236zm8.515 8.562v9.477a24.856 24.856 0 01-6.318-8.479 24.93 24.93 0 016.318-.998zm1.424 9.477v-9.477c2.16.063 4.279.396 6.318.997a24.825 24.825 0 01-6.318 8.48zm0-10.897v-7.143h8.518a24.841 24.841 0 01-1.646 8.24 26.07 26.07 0 00-6.872-1.097zm9.938-7.142h8.542a19.11 19.11 0 01-4.488 11.629 26.328 26.328 0 00-5.77-2.938 26.27 26.27 0 001.716-8.691zM22.016 49.158a24.6 24.6 0 015.346-2.688 26.27 26.27 0 005.884 8.319 19.142 19.142 0 01-11.23-5.631zm16.239 5.631a26.212 26.212 0 005.884-8.319c1.872.67 3.665 1.57 5.35 2.688a19.17 19.17 0 01-11.234 5.631zm0 0"/></svg>