<svg xmlns="http://www.w3.org/2000/svg" width="71.5" height="71.5" viewBox="0 0 71.5 71.5"><circle fill="#FF7B00" cx="35.75" cy="35.75" r="35"/><g fill="#FFF"><path d="M37.789 31.528a.6.6 0 00.63 1.02 4.857 4.857 0 002.323-4.158 4.889 4.889 0 00-4.885-4.882 4.908 4.908 0 00-4.201 2.394.599.599 0 101.031.611 3.705 3.705 0 013.17-1.807 3.687 3.687 0 013.684 3.684 3.662 3.662 0 01-1.752 3.138zm0 0"/><path d="M43.217 17.162H28.499a3.874 3.874 0 00-3.87 3.87v12.12a.6.6 0 001.2 0V21.684h20.06v28.134h-11.23a.6.6 0 000 1.2h11.175a2.68 2.68 0 01-2.615 2.122h-14.72a.599.599 0 100 1.199h14.718a3.874 3.874 0 003.87-3.87V21.032a3.874 3.874 0 00-3.87-3.87zm-14.718 1.199h14.718c1.284 0 2.36.911 2.615 2.122H25.887a2.672 2.672 0 012.612-2.122zm0 0"/><path d="M37.539 44.991c.445-.446.691-1.038.691-1.669s-.246-1.223-.691-1.668a2.353 2.353 0 00-1.802-.687 2.348 2.348 0 00-.688-1.802 2.341 2.341 0 00-1.801-.687 2.345 2.345 0 00-.688-1.801 2.327 2.327 0 00-1.035-.605l5.903-5.902c.92-.922.92-2.418 0-3.337a2.356 2.356 0 00-3.335 0l-11.9 11.897c-1.696 1.699-2.499 3.989-2.228 6.326l-8.257 8.257a.603.603 0 000 .849.605.605 0 00.849 0l8.467-8.468a.6.6 0 00.169-.518c-.323-2.061.35-4.101 1.849-5.598L34.941 27.68a1.162 1.162 0 011.641 1.641l-7.356 7.357a.597.597 0 000 .847.601.601 0 00.849 0 1.16 1.16 0 011.639 1.642.6.6 0 00.849.848 1.162 1.162 0 011.642 1.641.597.597 0 000 .848.597.597 0 00.847 0 1.164 1.164 0 011.642 0 1.164 1.164 0 010 1.641l-4.543 4.543c-1.498 1.497-3.538 2.171-5.599 1.848a.603.603 0 00-.517.169l-2.612 2.611a.601.601 0 00.85.849l2.4-2.402c2.338.273 4.628-.528 6.325-2.227l4.541-4.545zm0 0"/></g></svg>