<svg xmlns="http://www.w3.org/2000/svg" width="71.5" height="71.5" viewBox="0 0 71.5 71.5"><circle fill="#FF7B00" cx="35.75" cy="35.75" r="35"/><path d="M21.729 25.933c2.465 0 4.509-1.831 4.851-4.208h27.398a.698.698 0 100-1.399H26.58a4.911 4.911 0 00-4.851-4.207 4.914 4.914 0 00-4.91 4.909 4.913 4.913 0 004.91 4.905zm0-8.412a3.51 3.51 0 013.505 3.506 3.512 3.512 0 01-3.505 3.506 3.51 3.51 0 01-3.506-3.506 3.51 3.51 0 013.506-3.506zm28.045 28.045a4.912 4.912 0 00-4.855 4.203H17.521a.703.703 0 000 1.405h27.397c.343 2.372 2.387 4.207 4.855 4.207a4.913 4.913 0 004.906-4.909 4.91 4.91 0 00-4.905-4.906zm0 8.413a3.508 3.508 0 01-3.506-3.506 3.51 3.51 0 013.506-3.506 3.513 3.513 0 013.506 3.506 3.512 3.512 0 01-3.506 3.506zm4.205-18.929H40.918c-.281-2.526-2.424-4.499-5.022-4.499s-4.741 1.973-5.022 4.499H17.521a.7.7 0 100 1.4h13.396a5.055 5.055 0 004.978 4.208c2.496 0 4.57-1.822 4.975-4.208h13.108a.698.698 0 00.702-.702.696.696 0 00-.701-.698zm-18.083 4.203c-2.013 0-3.649-1.636-3.649-3.648s1.637-3.649 3.649-3.649 3.649 1.637 3.649 3.649-1.638 3.648-3.649 3.648zm0 0" fill="#FFF"/></svg>