<svg xmlns="http://www.w3.org/2000/svg" xmlns:xlink="http://www.w3.org/1999/xlink" width="71.5" height="71.5" viewBox="0 0 71.5 71.5"><path d="M-239.374 107.413c18.901-18.897 18.901-49.535 0-68.432m18.856 84.128c27.563-27.564 27.563-72.255 0-99.821m17.175 120.333c38.873-38.878 38.873-101.907-.004-140.781" fill="none" stroke="#FFF" stroke-width="3" stroke-linecap="round" stroke-miterlimit="10"/><circle fill="#FF7B00" cx="-122" cy="35.75" r="35"/><path d="M-136.021 25.933c2.465 0 4.509-1.831 4.851-4.208h27.398a.698.698 0 100-1.399h-27.398a4.911 4.911 0 00-4.851-4.207 4.914 4.914 0 00-4.91 4.909 4.913 4.913 0 004.91 4.905zm0-8.412a3.51 3.51 0 013.505 3.506 3.512 3.512 0 01-3.505 3.506 3.51 3.51 0 01-3.506-3.506 3.51 3.51 0 013.506-3.506zm28.045 28.045a4.912 4.912 0 00-4.855 4.203h-27.397a.703.703 0 000 1.405h27.397c.343 2.372 2.387 4.207 4.855 4.207a4.913 4.913 0 004.906-4.909 4.912 4.912 0 00-4.906-4.906zm0 8.413a3.508 3.508 0 01-3.506-3.506 3.51 3.51 0 013.506-3.506 3.513 3.513 0 013.506 3.506 3.512 3.512 0 01-3.506 3.506zm4.205-18.929h-13.061c-.281-2.526-2.424-4.499-5.022-4.499s-4.741 1.973-5.022 4.499h-13.352a.7.7 0 100 1.4h13.396a5.055 5.055 0 004.978 4.208c2.496 0 4.57-1.822 4.975-4.208h13.108a.698.698 0 00.702-.702.698.698 0 00-.702-.698zm-18.083 4.203c-2.013 0-3.649-1.636-3.649-3.648s1.637-3.649 3.649-3.649 3.649 1.637 3.649 3.649-1.638 3.648-3.649 3.648zm0 0" fill="#FFF"/><circle fill="#FF7B00" cx="-43" cy="35.75" r="35"/><circle fill="#FF7B00" cx="-123.25" cy="112.75" r="35"/><g fill="#FFF"><path d="M-123.25 110.06a4.714 4.714 0 004.71-4.71c0-2.596-2.112-4.706-4.71-4.706s-4.71 2.11-4.71 4.706a4.714 4.714 0 004.71 4.71zm0-8.074a3.368 3.368 0 013.363 3.363c0 1.855-1.508 3.363-3.363 3.363s-3.363-1.508-3.363-3.363a3.368 3.368 0 013.363-3.363zm0 0"/><path d="M-123.368 129.403l10.32-14.906c3.869-5.16 3.311-13.642-1.199-18.147-2.437-2.437-5.676-3.78-9.121-3.78s-6.688 1.344-9.121 3.777c-4.51 4.509-5.072 12.99-1.216 18.131l10.337 14.925zm-8.172-32.104a11.482 11.482 0 018.172-3.382c3.084 0 5.987 1.2 8.169 3.382 4.069 4.07 4.572 11.729 1.058 16.413l-9.227 13.329-9.243-13.349c-3.498-4.664-2.999-12.323 1.071-16.393zm0 0"/><path d="M-115.098 121.5a.672.672 0 10-.157 1.337c7.071.831 10.839 3.074 10.839 4.375 0 1.826-7.164 4.372-18.834 4.372s-18.834-2.546-18.834-4.372c0-1.301 3.768-3.544 10.839-4.375a.674.674 0 10-.157-1.337c-7.082.835-12.028 3.183-12.028 5.712 0 2.842 6.931 5.719 20.181 5.719s20.181-2.877 20.181-5.719c-.001-2.529-4.948-4.877-12.03-5.712zm0 0"/></g><circle fill="#FF7B00" cx="-43" cy="112.75" r="35"/><path fill="#FFF" d="M-27.57 49.426a20.542 20.542 0 005.2-13.676 20.539 20.539 0 00-5.6-14.11c-.003-.004-.007-.007-.007-.011-3.615-3.837-8.678-6.297-14.308-6.491l-.403-.011c-.104-.003-.208-.007-.313-.007s-.209.003-.313.007l-.399.011c-5.631.194-10.696 2.654-14.309 6.491-.003.004-.007.007-.007.011h-.003c-3.467 3.692-5.6 8.656-5.6 14.11a20.557 20.557 0 005.2 13.676c.007.007.007.014.011.021.013.017.03.023.045.041 3.633 4.061 8.844 6.676 14.662 6.874l.399.015c.104 0 .208.003.313.003s.209-.003.313-.007l.399-.011h.004c5.821-.198 11.039-2.82 14.673-6.888.006-.015.024-.018.03-.032.009-.003.009-.009.013-.016zm-34.618-12.964h8.538c.08 3.015.671 5.946 1.72 8.691a26.24 26.24 0 00-5.773 2.938 19.1 19.1 0 01-4.485-11.629zm4.874-13.499a26.414 26.414 0 005.62 2.762 26.306 26.306 0 00-1.956 9.313h-8.538a19.1 19.1 0 014.874-12.075zm33.506 12.075h-8.542a26.246 26.246 0 00-1.956-9.313 26.274 26.274 0 005.62-2.762 19.115 19.115 0 014.878 12.075zm-19.904-9.275a24.75 24.75 0 01-6.023-.911 24.923 24.923 0 016.023-7.854v8.765zm0 1.424v7.851h-8.515a24.85 24.85 0 011.896-8.872c2.139.618 4.357.962 6.619 1.021zm1.424 0a26.31 26.31 0 006.621-1.021 24.82 24.82 0 011.896 8.872h-8.518v-7.851zm0-1.424v-8.764a24.837 24.837 0 016.026 7.854c-1.951.546-3.97.855-6.026.91zm7.405-1.344a26.324 26.324 0 00-5.612-7.708 19.144 19.144 0 0110.803 5.208 24.928 24.928 0 01-5.191 2.5zm-16.231 0a24.745 24.745 0 01-5.189-2.5 19.139 19.139 0 0110.799-5.208 26.227 26.227 0 00-5.61 7.708zm-1.113 12.043h8.515v7.143a26.23 26.23 0 00-6.871 1.093 24.871 24.871 0 01-1.644-8.236zm8.515 8.562v9.477a24.856 24.856 0 01-6.318-8.479 24.93 24.93 0 016.318-.998zm1.424 9.477v-9.477c2.16.063 4.279.396 6.318.997a24.825 24.825 0 01-6.318 8.48zm0-10.897v-7.143h8.518a24.841 24.841 0 01-1.646 8.24 26.07 26.07 0 00-6.872-1.097zm9.938-7.142h8.542a19.11 19.11 0 01-4.488 11.629 26.328 26.328 0 00-5.77-2.938 26.27 26.27 0 001.716-8.691zm-24.384 12.696a24.6 24.6 0 015.346-2.688 26.27 26.27 0 005.884 8.319 19.142 19.142 0 01-11.23-5.631zm16.239 5.631a26.212 26.212 0 005.884-8.319c1.872.67 3.665 1.57 5.35 2.688a19.17 19.17 0 01-11.234 5.631zm0 0"/><circle fill="#FF7B00" cx="35.75" cy="35.75" r="35"/><defs><path id="a" d="M19.75 16.539h37v37h-37z"/></defs><clipPath id="b"><use xlink:href="#a" overflow="visible"/></clipPath><path clip-path="url(#b)" fill="#FFF" d="M55.508 18.79l-1.724-1.724a1.807 1.807 0 00-2.552.003l-1.892 1.889H19.75v33.856h33.856v-29.57l.185-.187 1.717-1.714a1.81 1.81 0 000-2.553zM31.871 38.757l1.946 1.949-2.678.729.732-2.678zm19.353-14.842l-2.562-2.566.853-.853 2.566 2.562-.857.857zm-.852.856L34.98 40.159l-2.563-2.564 15.389-15.389 2.566 2.565zm2.024-.32v27.152H20.96V20.166h27.173l-17 17-.111.116-1.285 4.701-.74.74a.603.603 0 00.429 1.033.605.605 0 00.427-.176l.742-.742 4.701-1.283 16.202-16.201.898-.903zm2.255-3.964l-1.714 1.719-2.565-2.566 1.714-1.717a.6.6 0 01.842 0l1.724 1.724c.233.23.233.61-.001.84zm0 0"/><g fill="#FFF"><path d="M-26.575 96.933h-4.26V95.11a.607.607 0 00-.605-.609h-4.26a.61.61 0 00-.609.609v1.823H-49.69V95.11a.61.61 0 00-.609-.609h-4.26a.61.61 0 00-.608.609v1.823h-4.257a.609.609 0 00-.608.608v32.85c0 .336.272.609.608.609h32.85a.609.609 0 00.608-.609v-32.85a.61.61 0 00-.609-.608zm-8.517-1.214h3.042v3.646h-3.042v-3.646zm-18.858 0h3.042v3.646h-3.042v-3.646zm-4.865 2.431h3.647v1.824a.61.61 0 00.608.609h4.26a.61.61 0 00.609-.609V98.15h13.381v1.824a.61.61 0 00.609.609h4.26a.607.607 0 00.605-.609V98.15h3.65v5.475h-31.631V98.15zm0 31.632v-24.938h31.631v24.938h-31.631zm0 0"/><path d="M-38.133 108.49H-54.56v17.645h23.119V108.49h-6.692zm-4.26 1.219h4.26v4.259h-4.26v-4.259zm4.26 9.733h-4.26v-4.26h4.26v4.26zm-9.734-4.259h4.26v4.26h-4.26v-4.26zm0-5.474h4.26v4.259h-4.26v-4.259zm-5.475 0h4.257v4.259h-4.257v-4.259zm0 5.474h4.257v4.26h-4.257v-4.26zm4.257 9.734h-4.257v-4.26h4.257v4.26zm5.478 0h-4.26v-4.26h4.26v4.26zm5.474 0h-4.26v-4.26h4.26v4.26zm5.475 0h-4.26v-4.26h4.26v4.26zm0-5.475h-4.26v-4.26h4.26v4.26zm0-9.733v4.259h-4.26v-4.259h4.26zm0 0"/></g><circle fill="#FF7B00" cx="35.75" cy="112.75" r="35"/><g fill="#FFF"><path d="M37.789 108.528a.6.6 0 00.63 1.02 4.857 4.857 0 002.323-4.158 4.889 4.889 0 00-4.885-4.882 4.908 4.908 0 00-4.201 2.394.599.599 0 101.031.611 3.705 3.705 0 013.17-1.807 3.687 3.687 0 013.684 3.684 3.662 3.662 0 01-1.752 3.138zm0 0"/><path d="M43.217 94.162H28.499a3.874 3.874 0 00-3.87 3.87v12.12a.6.6 0 001.2 0V98.684h20.06v28.134h-11.23a.6.6 0 000 1.2h11.175a2.68 2.68 0 01-2.615 2.122h-14.72a.599.599 0 100 1.199h14.718a3.874 3.874 0 003.87-3.87V98.032a3.874 3.874 0 00-3.87-3.87zm-14.718 1.199h14.718c1.284 0 2.36.911 2.615 2.122H25.887a2.672 2.672 0 012.612-2.122zm0 0"/><path d="M37.539 121.991c.445-.446.691-1.038.691-1.669s-.246-1.223-.691-1.668a2.353 2.353 0 00-1.802-.687 2.348 2.348 0 00-.688-1.802 2.341 2.341 0 00-1.801-.687 2.345 2.345 0 00-.688-1.801 2.327 2.327 0 00-1.035-.605l5.903-5.902c.92-.922.92-2.418 0-3.337a2.356 2.356 0 00-3.335 0l-11.9 11.897c-1.696 1.699-2.499 3.989-2.228 6.326l-8.257 8.257a.603.603 0 000 .849.605.605 0 00.849 0l8.467-8.468a.6.6 0 00.169-.518c-.323-2.061.35-4.101 1.849-5.598l11.898-11.899a1.162 1.162 0 011.641 1.641l-7.356 7.357a.597.597 0 000 .847.601.601 0 00.849 0 1.16 1.16 0 011.639 1.642.6.6 0 00.849.848 1.162 1.162 0 011.642 1.641.597.597 0 000 .848.597.597 0 00.847 0 1.164 1.164 0 011.642 0 1.164 1.164 0 010 1.641l-4.543 4.543c-1.498 1.497-3.538 2.171-5.599 1.848a.603.603 0 00-.517.169l-2.612 2.611a.601.601 0 00.85.849l2.4-2.402c2.338.273 4.628-.528 6.325-2.227l4.542-4.544zm0 0"/></g></svg>