<svg version="1.1" id="Capa_1" xmlns="http://www.w3.org/2000/svg" x="0" y="0" viewBox="0 0 595.4 179.8" xml:space="preserve"><style>.st0{fill:#222220}</style><path class="st0" d="M211.3 126.4V58.2h-14.8c-6.5 0-9.2-4.8-9.2-9.4 0-4.8 3.4-9.4 9.2-9.4h50c5.8 0 9.2 4.6 9.2 9.4 0 4.6-2.7 9.4-9.2 9.4h-14.8v68.2c0 6.8-4.3 10.6-10.2 10.6-5.8 0-10.2-3.8-10.2-10.6zM401.7 112c-5.1 0-11.9 7.7-21.7 7.7-8.9 0-16.8-4.4-18.1-13.9h41c5.9 0 8.4-2.8 8.4-8.5 0-16-13.8-35-34.6-35-20.3 0-34.4 17.8-34.4 37.2 0 21.2 14.4 37 36 37 14.3 0 31.3-8 31.3-16.3 0-4-3.7-8.2-7.9-8.2zm-38.2-25.6c2.5-4.8 7.2-8 13.2-8 4.2 0 7.6 1.4 10.1 3.7 3.1 2.7 5 6.7 5.6 11.4h-31.1c.2-2.5 1-5 2.2-7.1z"/><path class="st0" d="M302.1 112c-5.1 0-11.9 7.7-21.7 7.7-8.9 0-16.8-4.4-18.1-13.9h41c5.9 0 8.4-2.8 8.4-8.5 0-16-13.8-35-34.6-35-20.3 0-34.4 17.8-34.4 37.2 0 21.2 14.4 37 36 37 14.3 0 31.3-8 31.3-16.3 0-4-3.8-8.2-7.9-8.2zm-38.3-25.6c2.5-4.8 7.2-8 13.2-8 4.2 0 7.6 1.4 10.1 3.7 3.1 2.7 5 6.7 5.6 11.4h-31.1c.3-2.5 1-5 2.2-7.1zm225.8-24c-20.3 0-34.4 17.8-34.4 37.2 0 20 13.7 37 34.4 37s34.4-16.9 34.4-37c0-19.5-14.1-37.2-34.4-37.2zm10.9 51.2c-2.6 3.7-6.4 6.3-11.7 6.3-10.6 0-15.5-10.3-15.5-19.7 0-8.5 3.9-17.9 12.5-19.7 1.2-.3 2.4-.5 3.7-.5 10.5 0 15.2 10.4 15.2 19.6.1 5-1.3 10.2-4.2 14zm30.5 12.5V73.9c0-6.5 4.1-10.9 9.8-10.9 5 0 8.3 2.7 9 7.2 3.8-5.3 9.7-8 18.9-8 15.4 0 26.8 9.8 26.8 26.4v37.5c0 6.5-4.1 10.9-9.8 10.9-5.7 0-9.8-4.3-9.8-10.9V92c0-9.1-5.7-13.5-12.8-13.5-8 0-12.5 5.8-12.5 13.5v34.1c0 6.5-4.1 10.9-9.8 10.9-5.7-.1-9.8-4.4-9.8-10.9zm-107.9 0V81h-4.3c-5.3 0-8.6-3.3-8.6-8.6 0-4.9 3.7-8.6 8.6-8.6h4.3V52.2c0-6.5 4.1-10.9 9.8-10.9 5.7 0 9.8 4.3 9.8 10.9v11.7h5.6c5 0 9.4 2.3 9.4 8.6 0 6.1-4.3 8.6-9.4 8.6h-5.6v45.1c0 6.5-4.1 10.9-9.8 10.9-5.7-.1-9.8-4.5-9.8-11zm-105 0V42.4c0-6.5 4.1-10.9 9.8-10.9 5.7 0 9.8 4.3 9.8 10.9v83.7c0 6.5-4.1 10.9-9.8 10.9-5.7 0-9.8-4.4-9.8-10.9z"/><path d="M516.8 27.8c-1.2-.5-2.4-.8-3.6-1-3.1-.2-6.2.9-8.4 3.2.5-4.4-1.8-8.8-6-10.7-.3-.1-.6-.3-.9-.4-5-1.8-10.7.5-13 5.5-1 2.2-1.2 4.5-.7 6.7l4 23.3c.1.6.3 1.1.5 1.7.1.1.1.3.2.4 1.6 2.8 5.2 3.8 8 2.1l20.4-11.9c1.9-1 3.6-2.7 4.6-4.9 2.4-5.3.1-11.5-5.1-14zM179.9 86.7c-.8-21.3-9-37.4-14.7-46.1 0 0-1.4-2.6-5.1-2.8-3-.2-5 2.4-5.2 2.6-.9 1.2-1.9 2.5-3 3.8-3.1 3.7-7.2 7.9-12.2 11.9-4.4 3.5-8.8 6.1-12.5 8-.1 0-.2.1-.3.1 0 0-.1 0-.1.1-3.7 1.9-6.7 3.1-8.4 3.7h-.1c-.2 0-.5.1-.7-.1-.3-.3-.1-1.4-.1-1.4 1.1-3.9 4.1-12.9 10.1-21.6.4-.6.8-1.2 1.2-1.7 3.7-5 7.4-8.9 10.7-12 1.5-1.4 2.9-2.7 4.2-3.8 0 0 2.4-1.5 2.5-5 .1-3-2.7-5-2.7-5C134.2 10.4 115-.8 88.1 0 67.4.6 51.7 7.8 42 13.9c-1.8 1.1-3.5 2.2-4.8 3.2 0 0-.1.1-.2.1-.4.3-1.3 1.1-1.9 2.4-.3.5-.5 1.2-.5 1.9-.5 3.5 2 5.5 2 5.5 4.9 4.1 11.8 10.6 16.7 18.6 7 11.2 9 18.2 9.6 21.1 0 0 .1.5 0 .8 0 .1-.1.2-.1.2-.4.3-1.2-.1-1.2-.1-3.8-1.4-14.1-5.6-23.7-14.2-5.5-4.9-9.6-9.7-12.4-13.5 0 0-1.7-2.6-5-2.5-2.5 0-4 1.4-4.7 2.2-.3.4-.5.6-.5.6C8.9 50-.8 68.6 0 89.9c.9 23.7 9 40.2 14.6 49 0 0 2 2.9 5.2 2.7h.1c.3 0 .5-.1.8-.1h.4c.2 0 .3-.1.5-.1.2-.1.4-.1.5-.2.1 0 .1-.1.2-.1 1.7-.7 2.4-1.8 2.4-1.8C28 134.6 33 128.6 39 124c2.6-2.1 5.3-3.9 7.9-5.5 6.4-4 12.2-6.7 14.9-7.8 0 0 .4-.2.8-.1.1 0 .2.1.3.2.3.3.1.9.1.9-.6 2.8-2.3 9.1-7.1 17.2-1.1 1.9-2.4 3.8-3.8 5.9-1.3 1.8-2.6 3.5-4 5.2-4.4 5.3-8.9 9.4-12.3 12.2 0 0-2.1 1.5-2.1 4.6v.1c0 2.1 1.1 3.6 1.8 4.3l.1.1.1.1c.3.3.5.4.5.4 9.9 7.1 30.1 19 54.4 18.1h.3c26.4-1.1 44-11.2 52.6-17.7 0 0 2.6-1.6 2.6-4.9 0-3.3-2.2-4.8-2.2-4.8-4.5-3.8-10.9-9.7-15.6-16.4-7.1-10.2-11.4-24-11.4-24s-.1-.5.1-.9c.2-.3 1.1 0 1.1 0 3.7 1.5 13.3 5.8 22 12.8 6.2 5 11.3 11.1 14.7 15.9 0 0 1.7 2.5 5.1 2.5h1.1c.3-.1.6-.1.9-.2h.1c.3-.1.5-.2.8-.3h.1c.5-.3.9-.6 1.2-.9.7-.6 1-1.2 1-1.2 6-9.5 14.9-27.4 14.9-49.7-.1-1.4-.1-2.4-.1-3.4z" fill="#d33741"/><path d="M8.3 87.9v-.6c0-16.4 6.9-31 12.2-39.8.1-.1.2-.2.3-.2.2 0 .5.2.6.4 3.4 4.1 7 8.1 11.1 11.7 13.3 12 27.7 16.4 28.4 16.6 0 0 4.1 1.4 7.1.2.4-.1.7-.3 1.1-.5.7-.5 1.2-1.2 1.6-2 1.3-2.6.8-6.2.8-6.2-.1-1.6-1.1-10.4-11.1-26.3-4.7-7.6-10.9-13.8-15.9-18.3 0 0-.2-.2-.2-.5v-.1c0-.2.2-.3.2-.3 8.3-5.6 23.4-13.2 43.9-13.8 22.4-.6 38.8 7.9 47.8 14.1 0 0 .1.1.1.2v.2c0 .2-.3.5-.3.5-3.9 3.5-8.8 8.4-13.8 15.1-5.7 7.7-9.3 15.9-11.3 21.4 0 0-.8 2-1.3 4.7v.1c0 .2-.1.3-.1.5 0 .1 0 .2-.1.4v.2c0 .2-.1.3-.1.5v.1c0 .2 0 .3-.1.5v.1c0 .2 0 .4-.1.5v.1c0 .2 0 .4-.1.6v1.3c0 1.4.1 2.8.6 4v.1c0 .1.1.2.2.4 0 .1.1.1.1.2.1.1.1.2.2.3 0 .1.1.1.1.2.1.1.1.2.2.3 0 0 0 .1.1.1l.1.1c.1.1.2.3.4.4 0 0 0 .1.1.1.2.2.3.3.5.4 1.2.8 2.8 1.1 4.3 1 1.9 0 3.5-.5 3.5-.5.1 0 .6-.2 1.4-.4 3.6-1.3 13.8-5.2 24.2-13.4 3.9-3.1 7.3-6.3 10.1-9.3 1.7-1.8 3.2-3.5 4.4-5.2h.1c.1-.1.2-.1.3-.1.2 0 .4.2.4.2 4.8 8.1 11 22 11.5 39.9-22.3 3.2-50.7 5.2-81.7 5.2-31.1-.1-59.5-2.1-81.8-5.4z" fill="#fff"/></svg>