<svg xmlns="http://www.w3.org/2000/svg" width="253.532" height="82.724" viewBox="0 -20.056 253.532 82.724"><path fill="#E1781C" d="M31.847 23.168c0 5.838-4.615 10.245-10.296 10.245-5.681 0-10.295-4.407-10.295-10.245 0-5.632 4.667-10.245 10.295-10.245 5.63-.002 10.296 4.613 10.296 10.245zm-2.449 0c0-4.327-3.232-7.951-7.846-7.951s-7.845 3.623-7.845 7.951c0 4.484 3.598 7.951 7.845 7.951 4.248 0 7.846-3.469 7.846-7.951zm10.109 9.823h-2.448v-17.41h-4.668V13.34h11.78v2.241h-4.665v17.41zm11.885 0h-2.449v-17.41h-4.667V13.34h11.782v2.241h-4.665l-.001 17.41zm7.297-4.924l-2.243 4.923h-2.634l9.384-20.486L72.58 32.99h-2.632l-2.243-4.923h-9.016zm4.509-10.192l-3.492 7.948h6.984l-3.492-7.948z"/><path fill="#E1781C" d="M77.011 28.067l-2.242 4.923h-2.633l9.384-20.486 9.384 20.486h-2.633l-2.242-4.923h-9.018zm4.508-10.192l-3.492 7.948h6.985l-3.493-7.948z"/><path fill="#C3C3C2" d="M94.993 32.991h-2.452V13.34h2.815c6.047 0 7.923 2.084 7.923 5.683 0 4.143-3.156 5.735-6.882 5.735h-1.405l.001 8.233zm0-10.426h.78c2.503 0 5.215-.468 5.215-3.595 0-3.078-2.919-3.441-5.343-3.441h-.651v7.036zm22.674 10.426h-2.973l-5.786-8.313h-1.019v8.313h-2.448V13.34h2.972c1.746 0 3.623.026 5.187.913 1.643.964 2.582 2.814 2.582 4.692 0 2.816-1.878 5.159-4.72 5.498l6.205 8.548zm-9.775-10.345h.782c2.501 0 5.214-.472 5.214-3.598 0-3.077-2.918-3.519-5.343-3.519h-.652l-.001 7.117zm30.912.522c0 5.838-4.613 10.245-10.3 10.245-5.682 0-10.294-4.407-10.294-10.245 0-5.632 4.667-10.245 10.294-10.245 5.633-.002 10.3 4.613 10.3 10.245zm-2.45 0c0-4.327-3.231-7.951-7.846-7.951s-7.845 3.623-7.845 7.951c0 4.484 3.598 7.951 7.845 7.951 4.248-.002 7.846-3.469 7.846-7.951zm10.84-9.828v12.484c0 3.781-.731 7.585-5.318 7.585-1.147 0-2.114-.285-3.074-.86l1.224-2.086a3.25 3.25 0 001.958.654c2.813 0 2.76-3.285 2.76-5.293V13.34h2.45zm3.412 0h10.561v2.241h-8.104v5.5h7.87v2.244h-7.87v7.426h8.104v2.24h-10.561V13.34zm27.89 3.752c-1.408-1.251-3.336-1.929-5.186-1.929-4.405 0-7.769 3.675-7.769 8.028 0 4.304 3.337 7.976 7.716 7.976 1.929 0 3.778-.73 5.238-2.033v2.893c-1.513.886-3.438 1.386-5.163 1.386-5.604 0-10.245-4.458-10.245-10.139 0-5.814 4.668-10.351 10.454-10.351 1.722 0 3.469.417 4.954 1.33v2.839zm8.209 15.899h-2.449v-17.41h-4.666V13.34h11.783v2.241h-4.668v17.41z"/><path fill="none" stroke="#E1781C" stroke-width="3" stroke-miterlimit="10" d="M204.785 39.438c8.524-8.523 8.524-22.348 0-30.874m8.507 37.958c12.438-12.438 12.438-32.6 0-45.039m7.749 54.295c17.539-17.54 17.539-45.981-.001-63.521"/><path fill="#E1781C" d="M241.635-7.006c0 3.2-2.512 5.711-5.781 5.711-3.231 0-5.813-2.511-5.813-5.711 0-3.129 2.581-5.64 5.813-5.64 3.27 0 5.781 2.511 5.781 5.64zm-10.147 0c0 2.512 1.856 4.507 4.404 4.507 2.475 0 4.297-1.995 4.297-4.471 0-2.511-1.822-4.542-4.335-4.542-2.51 0-4.366 2.032-4.366 4.506zm3.475 2.959h-1.31v-5.64c.519-.104 1.237-.173 2.17-.173 1.063 0 1.547.173 1.958.413.313.241.552.688.552 1.238 0 .621-.48 1.101-1.169 1.308v.069c.55.207.86.618 1.03 1.375.173.861.277 1.204.413 1.411H237.2c-.173-.207-.277-.721-.447-1.375-.107-.619-.449-.896-1.174-.896h-.616v2.27zm.034-3.199h.618c.725 0 1.308-.24 1.308-.825 0-.517-.378-.86-1.204-.86a3.08 3.08 0 00-.722.068v1.617z"/></svg>