<svg version="1.1" id="Capa_1" xmlns="http://www.w3.org/2000/svg" x="0" y="0" viewBox="0 0 71.5 146.8" xml:space="preserve"><style>.st0{fill:none;stroke:#e1781c;stroke-width:3;stroke-linecap:round;stroke-miterlimit:10}</style><path class="st0" d="M41.7 100.9c7.1-7.3 7.1-19.1 0-26.4m7.1 32.4c10.4-10.6 10.4-27.8 0-38.5m6.4 46.4c14.6-15 14.6-39.3 0-54.3m-13.5 41.1c7.1-7.3 7.1-19.1 0-26.4m7.1 32.5c10.4-10.6 10.4-27.8 0-38.5m6.4 46.4c14.6-15 14.6-39.3 0-54.3M28 37.6C27 30 17 23.9 6.7 24M22 82.5c3.3 1.3 7.6 1.6 9.7-.7.8-.9 1-1.9 1.3-3.9 1-5.6-.7-7.9.8-9.5 1.8-2 5.6-.2 6.2-1.5.5-1.1-2.1-2.7-5.8-7-1.8-2-2.6-3.1-3.5-4.6-2.7-4.5-2.9-9-3.1-11.1-.1-1.6-.1-3.8.4-6.5"/><path class="st0" d="M6.3 122.6c1.4-5 3.3-10.1 6.5-14.2 3.1-4.1 7.6-6.1 11.9-8.7 3.7-2.2 8.4-6.2 7.2-11.1-1.1-4.5-6-5.4-9.9-5.8M20.9 42c.9.8 1.2 1.8 1.4 2.2.5 1.5.2 2.8.1 3.3s-.5 1.8-1.7 2.9c-.4.4-1.4 1.3-3.1 1.5-2.2.2-3.7-1.3-3.9-1.6-1.9-1.9-1.4-4.5-1.3-5 .1-.6.4-2.5 2.1-3.7 2-1.4 4.8-1.1 6.4.4z"/></svg>