<svg xmlns="http://www.w3.org/2000/svg" width="600" height="600" viewBox="0 0 600 600"><defs><filter id="a"><feGaussianBlur stdDeviation="2.792"/></filter></defs><path d="M300.969 49.031c-56.479 0-108.596 18.782-150.469 50.407 45.877 34.654 79.431 84.747 92.938 142.53-57.785-13.506-107.877-47.06-142.532-92.937C69.282 190.905 50.5 243.021 50.5 299.5c0 56.038 18.478 107.795 49.656 149.5 34.729-46.445 85.229-80.408 143.531-93.969-13.34 58.234-47.029 108.727-93.187 143.594 41.873 31.624 93.99 50.406 150.469 50.406 56.038 0 107.795-18.478 149.5-49.656-46.727-34.94-80.826-85.842-94.219-144.594 58.753 13.4 109.655 47.515 144.594 94.25C532.03 407.323 550.5 355.547 550.5 299.5c0-56.479-18.782-108.595-50.406-150.469-34.868 46.159-85.36 79.847-143.594 93.188 13.567-58.305 47.547-108.804 94-143.531C408.792 67.5 357.016 49.03 300.969 49.03z" fill="red"/><path d="M300.969 44.031c-57.587 0-110.763 19.154-153.469 51.407a5 5 0 000 8c42.714 32.265 74.297 78.257 88.719 131.312-53.055-14.422-99.047-46.005-131.313-88.719a5 5 0 00-8 0C64.653 188.737 45.5 241.913 45.5 299.5c0 57.137 18.858 109.965 50.656 152.5a5 5 0 008 0c32.355-43.27 78.774-75.258 132.344-89.75-14.286 53.498-46.004 99.897-89 132.375a5 5 0 000 8c42.706 32.253 95.882 51.406 153.469 51.406 57.137 0 109.965-18.858 152.5-50.656a5 5 0 000-8c-43.66-32.646-76.044-79.535-90.344-133.719 54.185 14.307 101.073 46.707 133.719 90.375a5 5 0 008 0c31.808-42.54 50.656-95.386 50.656-152.531 0-57.587-19.153-110.763-51.406-153.469a5 5 0 00-8 0c-32.479 42.996-78.877 74.714-132.375 89 14.498-53.57 46.503-99.99 89.781-132.344a5 5 0 000-8c-42.54-31.808-95.386-50.656-152.531-50.656zm0 10c52.637 0 101.278 16.735 141.219 45-44.587 35.234-77.259 84.886-90.563 142.063a5 5 0 006 6c57.11-13.084 106.765-45.481 142.125-89.781 28.696 40.123 45.75 89.117 45.75 142.187 0 52.637-16.735 101.278-45 141.219-35.456-44.866-85.496-77.67-143.125-90.813a5 5 0 00-6 6c13.137 57.627 45.924 107.668 90.781 143.125-39.937 28.259-88.56 45-141.187 45-53.07 0-102.064-17.054-142.188-45.75 44.3-35.36 76.698-85.015 89.781-142.125a5 5 0 00-6-6c-57.174 13.299-106.827 45.954-142.062 90.531-28.259-39.937-45-88.56-45-141.187 0-53.08 17.045-102.092 45.75-142.219 35.137 44.032 84.397 76.318 141.063 89.563a5 5 0 006-6c-13.245-56.666-45.531-105.926-89.563-141.063 40.127-28.704 89.14-45.75 142.219-45.75z" fill="#d40000" stroke="#000" stroke-linecap="round" stroke-linejoin="round" filter="url(#a)"/><path d="M300.969 49.031c-56.479 0-108.596 18.782-150.469 50.407 45.877 34.654 79.431 84.747 92.938 142.53-57.785-13.506-107.877-47.06-142.532-92.937-30.717 40.673-49.302 91.013-50.344 145.625 166.196 18.372 333.586 15.374 499.844-1.062-1.26-54.202-19.794-104.154-50.312-144.563-34.868 46.159-85.36 79.847-143.594 93.188 13.567-58.305 47.547-108.804 94-143.531C408.792 67.5 357.016 49.03 300.969 49.03z" fill="#fff"/><path d="M300.969 44.031c-57.587 0-110.763 19.154-153.469 51.407a5 5 0 000 8c42.714 32.265 74.297 78.257 88.719 131.312-53.055-14.422-99.047-46.005-131.313-88.719a5 5 0 00-8 0C64.653 188.737 45.5 241.913 45.5 299.5c0 57.137 18.858 109.965 50.656 152.5a5 5 0 008 0c32.355-43.27 78.774-75.258 132.344-89.75-14.286 53.498-46.004 99.897-89 132.375a5 5 0 000 8c42.706 32.253 95.882 51.406 153.469 51.406 57.137 0 109.965-18.858 152.5-50.656a5 5 0 000-8c-43.66-32.646-76.044-79.535-90.344-133.719 54.185 14.307 101.073 46.707 133.719 90.375a5 5 0 008 0c31.808-42.54 50.656-95.386 50.656-152.531 0-57.587-19.153-110.763-51.406-153.469a5 5 0 00-8 0c-32.479 42.996-78.877 74.714-132.375 89 14.498-53.57 46.503-99.99 89.781-132.344a5 5 0 000-8c-42.54-31.808-95.386-50.656-152.531-50.656zm0 10c52.637 0 101.278 16.735 141.219 45-44.587 35.234-77.259 84.886-90.563 142.063a5 5 0 006 6c57.11-13.084 106.765-45.481 142.125-89.781 28.696 40.123 45.75 89.117 45.75 142.187 0 52.637-16.735 101.278-45 141.219-35.456-44.866-85.496-77.67-143.125-90.813a5 5 0 00-6 6c13.137 57.627 45.924 107.668 90.781 143.125-39.937 28.259-88.56 45-141.187 45-53.07 0-102.064-17.054-142.188-45.75 44.3-35.36 76.698-85.015 89.781-142.125a5 5 0 00-6-6c-57.174 13.299-106.827 45.954-142.062 90.531-28.259-39.937-45-88.56-45-141.187 0-53.08 17.045-102.092 45.75-142.219 35.137 44.032 84.397 76.318 141.063 89.563a5 5 0 006-6c-13.245-56.666-45.531-105.926-89.563-141.063 40.127-28.704 89.14-45.75 142.219-45.75z" fill="#d40000"/></svg>